<svg xmlns="http://www.w3.org/2000/svg" viewBox="0 0 103.67 115.71"><defs><style>.cls-1{fill:#e7276d;}</style></defs><title>Asset 1logo</title><g id="Layer_2" data-name="Layer 2"><g id="Layer_1-2" data-name="Layer 1"><g id="_469fd7ff" data-name="#469fd7ff"><path class="cls-1" d="M24.63,7.48C27.37,6,30.19,4.65,33,3.39a53.9,53.9,0,0,1,30.76-2A49.72,49.72,0,0,1,94.08,21.76c2,3.32,4.18,6.58,5.31,10.31A59.93,59.93,0,0,1,103.64,52a9.38,9.38,0,0,1-3.58,8.09c-4.4,3.14-9.84,4.23-15.12,4.76a20.12,20.12,0,0,0-3.2.38,4.49,4.49,0,0,0-.32,1.92c0,9-.1,17.9-.11,26.84a10.17,10.17,0,0,1-.68,4.77,6.34,6.34,0,0,1-7.57,3.16c-2.79-.87-4.43-3.92-4.34-6.73.07-9.12.07-18.24.17-27.37A3.66,3.66,0,0,0,68.58,66a5.59,5.59,0,0,0-2.26-.28c-2.25,0-4.51,0-6.76.11a4.79,4.79,0,0,0-1.61.46c-.21,14.5-.12,29-.3,43.49,0,4-4.62,7-8.31,5.56a4.81,4.81,0,0,1-3.05-2.76A7.75,7.75,0,0,1,45.12,109q.1-20.81.21-41.6A4.82,4.82,0,0,0,45,65.86a63.74,63.74,0,0,0-10.52-.13c-.32,5.24-.11,10.5-.22,15.75,0,2.79.44,6-1.76,8.21C31,90.91,29,92,27,91.51c-3.16-.45-5.34-3.62-5.27-6.69,0-6.09.06-12.18.13-18.27,0-.76-.23-1.84-1.17-1.81A48.35,48.35,0,0,1,8.26,62.3,13.91,13.91,0,0,1,1,56.69c-1.2-2.29-1-5-.78-7.44A58.11,58.11,0,0,1,8.77,23,49.53,49.53,0,0,1,24.63,7.48Z"/></g><path class="cls-1" d="M21.71,81.87V97.43s1.15,4.42,6.68,4.64,5.16-7.23,5.9-19.69S24.56,76,24.56,76Z"/></g></g></svg>